<svg width="22" height="35" viewBox="0 0 22 35" fill="none" xmlns="http://www.w3.org/2000/svg">
<path d="M4.70455 19.25V35H0.681824V0.0909119H4.70455V12.9091H5.04546C5.6591 11.5568 6.57955 10.483 7.80682 9.6875C9.04546 8.88069 10.6932 8.47728 12.75 8.47728C14.5341 8.47728 16.0966 8.83523 17.4375 9.55114C18.7784 10.2557 19.8182 11.3409 20.5568 12.8068C21.3068 14.2614 21.6818 16.1136 21.6818 18.3636V35H17.6591V18.6364C17.6591 16.5568 17.1193 14.9489 16.0398 13.8125C14.9716 12.6648 13.4886 12.0909 11.5909 12.0909C10.2727 12.0909 9.09092 12.3693 8.04546 12.9261C7.01137 13.483 6.19319 14.2955 5.59092 15.3636C5.00001 16.4318 4.70455 17.7273 4.70455 19.25Z" fill="black"/>
</svg>
